<?xml version="1.0" encoding="utf-8" ?><svg xmlns="http://www.w3.org/2000/svg" xmlns:xlink="http://www.w3.org/1999/xlink" width="588" height="589" viewBox="0 0 588 589"><clipPath id="cl_3"><rect width="588" height="589"/></clipPath><g clip-path="url(#cl_3)"><defs><linearGradient id="gradient_0" gradientUnits="userSpaceOnUse" x1="489.25983" y1="593.03503" x2="563.40088" y2="373.73029"><stop offset="0" stop-color="#2D8F44"/><stop offset="1" stop-color="#85D156"/></linearGradient></defs><path fill="url(#gradient_0)" transform="translate(-218 -216)" d="M470.486 238.703C571.361 223.285 672.528 264.671 733.674 346.369C767.816 391.985 787.034 447.034 788.701 503.988C789.014 514.692 788.706 525.405 787.777 536.073C784.458 543.918 783.776 551.832 781.582 560.045C776.876 577.419 769.707 594.029 760.295 609.372C758.029 613.031 755.037 618.155 752.246 621.251C752.216 620.297 752.443 618.071 751.923 617.327C747.334 610.759 670.014 583.357 658.49 581.068C658.593 578.337 659.403 573.227 659.829 570.43C661.267 560.28 661.941 550.036 661.846 539.786C662.067 537.667 661.539 531.889 661.319 529.691C659.682 512.346 655.125 495.402 647.841 479.576C635.428 452.529 612.526 431.712 584.42 421.93C541.325 406.617 503.096 416.44 464.432 437.015C448.929 445.265 432.343 455.294 416.631 462.822C405.961 470.977 375.688 481.167 362.538 483.29C362.335 490.305 363.505 495.178 363.823 501.731C370.41 536.612 381.671 565.554 411.947 586.535C459.741 619.654 510.632 609.956 559.314 587.06C560.101 590.301 560.116 593.463 560.409 596.743C560.945 602.738 562.563 613.954 564.867 619.618C546.362 624.574 528.036 629.699 509.331 633.872C492.194 637.565 474.942 640.702 457.603 643.28C469.285 654.876 489.533 667.127 503.606 675.51C536.39 691.905 550.964 695.973 586.887 699.959C562.809 722.964 542.741 738.039 511.659 750.3C488.448 759.653 467.924 760.184 443.48 760.03C436.537 759.851 430.506 758.961 423.756 757.493C418.931 757.19 406.576 752.742 401.601 750.988L400.147 754.765C380.309 747.828 361.433 738.397 343.972 726.699C336.408 721.662 329.905 716.377 323.093 710.451C319.992 707.753 313.145 701.415 309.715 700.366C264.018 651.207 237.759 587.107 235.832 520.017C235.54 509.835 235.81 499.645 236.642 489.493C245.111 386.142 310.686 296.214 406.499 256.554C427.033 248.054 448.517 242.06 470.486 238.703ZM370.975 422.521C394.394 422.929 424.069 412.341 446.542 405.821C465.965 400.22 485.506 395.039 505.153 390.28C517.472 387.321 534.984 383.253 547.63 381.827C549.326 381.015 564.136 378.777 567.266 378.079C565.518 376.389 563.488 374.815 561.595 373.271C546.607 361.692 537.905 356.208 521.487 346.928C502.355 337.506 484.261 329.921 463.203 325.62C456.103 324.17 447.735 323.167 440.495 322.035C438.425 321.983 432.011 321.683 430.408 322.217C407.157 347.837 389.598 367.312 377.953 400.941C376.01 406.549 372.208 417.011 370.975 422.521ZM305.937 620.275C291.012 608.509 279.064 597.911 268.024 582.152C266.898 581.286 265.469 579.096 263.227 577.328C271.487 589.915 292.601 615.02 305.937 620.275Z"/><defs><linearGradient id="gradient_1" gradientUnits="userSpaceOnUse" x1="413.18771" y1="542.25177" x2="393.46997" y2="648.88135"><stop offset="0" stop-color="#64B854"/><stop offset="1" stop-color="#A3EA68"/></linearGradient></defs><path fill="url(#gradient_1)" transform="translate(-218 -216)" d="M269.132 408.995C271.864 410.249 276.886 410.445 280.065 410.739C278.904 412.741 277.911 414.143 277.367 416.393C276.464 421.203 270.341 428.887 268.695 432.986C264.748 442.818 259.487 456.6 257.305 466.881C257.787 470.598 256.042 474.778 255.766 478.238C255.247 484.764 251.838 508.359 254.466 513.506C255.841 513.188 255.835 512.887 256.603 513.378C260.265 515.724 266.799 515.14 270.563 516.27C277.261 518.281 283.812 518.805 290.743 520.157C307.832 523.525 324.945 526.767 342.082 529.882C353.227 531.944 360.815 532.444 371.712 536.052C371.922 531.842 361.305 508.717 363.823 501.731C370.41 536.612 381.671 565.554 411.947 586.535C459.741 619.654 510.632 609.956 559.314 587.06C560.101 590.301 560.116 593.463 560.409 596.743C560.945 602.738 562.563 613.954 564.867 619.618C546.362 624.574 528.036 629.699 509.331 633.872C492.194 637.565 474.942 640.702 457.603 643.28C469.285 654.876 489.533 667.127 503.606 675.51C536.39 691.905 550.964 695.973 586.887 699.959C562.809 722.964 542.741 738.039 511.659 750.3C488.448 759.653 467.924 760.184 443.48 760.03C436.537 759.851 430.506 758.961 423.756 757.493C418.931 757.19 406.576 752.742 401.601 750.988L400.147 754.765C380.309 747.828 361.433 738.397 343.972 726.699C336.408 721.662 329.905 716.377 323.093 710.451C319.992 707.753 313.145 701.415 309.715 700.366C264.018 651.207 237.759 587.107 235.832 520.017C235.54 509.835 235.81 499.645 236.642 489.493C239.816 481.347 240.623 473.204 242.791 464.816C247.786 445.491 257.068 424.937 269.132 408.995ZM305.937 620.275C291.012 608.509 279.064 597.911 268.024 582.152C266.898 581.286 265.469 579.096 263.227 577.328C271.487 589.915 292.601 615.02 305.937 620.275Z"/><path fill="#F2FBEF" fill-opacity="0.039215688" transform="translate(-218 -216)" d="M263.227 577.328C265.469 579.096 266.898 581.286 268.024 582.152C279.064 597.911 291.012 608.509 305.937 620.275C292.601 615.02 271.487 589.915 263.227 577.328Z"/><defs><linearGradient id="gradient_2" gradientUnits="userSpaceOnUse" x1="405.96057" y1="664.73584" x2="455.75305" y2="738.5871"><stop offset="0" stop-color="#026D1E"/><stop offset="1" stop-color="#39A36A"/></linearGradient></defs><path fill="url(#gradient_2)" transform="translate(-218 -216)" d="M457.603 643.28C469.285 654.876 489.533 667.127 503.606 675.51C536.39 691.905 550.964 695.973 586.887 699.959C562.809 722.964 542.741 738.039 511.659 750.3C488.448 759.653 467.924 760.184 443.48 760.03C436.537 759.851 430.506 758.961 423.756 757.493C418.931 757.19 406.576 752.742 401.601 750.988C374.126 736.141 363.073 729.205 343.502 704.299C345.104 704.808 346.736 705.217 348.388 705.524C367.013 709.076 401.515 696.356 417.599 685.634C427.954 678.384 434.707 667.17 443.012 657.829C446.205 654.238 455.356 648.243 456.113 643.876L457.603 643.28Z"/><defs><linearGradient id="gradient_3" gradientUnits="userSpaceOnUse" x1="478.33136" y1="699.46381" x2="527.10516" y2="753.02478"><stop offset="0" stop-color="#54B986"/><stop offset="1" stop-color="#6FD8A4"/></linearGradient></defs><path fill="url(#gradient_3)" transform="translate(-218 -216)" d="M503.606 675.51C536.39 691.905 550.964 695.973 586.887 699.959C562.809 722.964 542.741 738.039 511.659 750.3C488.448 759.653 467.924 760.184 443.48 760.03C436.537 759.851 430.506 758.961 423.756 757.493C431.127 751.811 442.622 750.613 449.986 743.47C471.181 722.911 482.782 696.83 503.606 675.51Z"/><path fill="#0A5724" transform="translate(-218 -216)" d="M235.832 520.017C239.093 523.648 242.666 540.562 245.179 547.099C248.496 555.954 252.933 564.347 258.382 572.075C259.211 573.243 261.965 577.206 263.227 577.328C271.487 589.915 292.601 615.02 305.937 620.275C309.899 622.664 313.654 626.641 317.903 628.838C338.929 639.709 360.684 646.776 384.374 648.509C399.926 650.673 440.485 646.085 456.113 643.876C455.356 648.243 446.205 654.238 443.012 657.829C434.707 667.17 427.954 678.384 417.599 685.634C401.515 696.356 367.013 709.076 348.388 705.524C346.736 705.217 345.104 704.808 343.502 704.299C363.073 729.205 374.126 736.141 401.601 750.988L400.147 754.765C380.309 747.828 361.433 738.397 343.972 726.699C336.408 721.662 329.905 716.377 323.093 710.451C319.992 707.753 313.145 701.415 309.715 700.366C264.018 651.207 237.759 587.107 235.832 520.017Z"/><path fill="#BAECA7" transform="translate(-218 -216)" d="M268.024 582.152C271.248 583.318 273.882 584.345 277.023 585.713C286.725 590.106 298.748 592.847 308.911 596.376C319.138 599.928 329.357 603.574 339.597 607.089C356.919 613.033 374.116 619.018 390.433 627.466C389.405 634.8 389.078 642.702 384.374 648.509C360.684 646.776 338.929 639.709 317.903 628.838C313.654 626.641 309.899 622.664 305.937 620.275C291.012 608.509 279.064 597.911 268.024 582.152Z"/><path fill="#3EAC2B" transform="translate(-218 -216)" d="M269.132 408.995C271.864 410.249 276.886 410.445 280.065 410.739C278.904 412.741 277.911 414.143 277.367 416.393C276.464 421.203 270.341 428.887 268.695 432.986C264.748 442.818 259.487 456.6 257.305 466.881C249.328 499.933 252.474 534.692 266.255 565.774C269.182 572.406 274.225 579.428 277.023 585.713C273.882 584.345 271.248 583.318 268.024 582.152C266.898 581.286 265.469 579.096 263.227 577.328C261.965 577.206 259.211 573.243 258.382 572.075C252.933 564.347 248.496 555.954 245.179 547.099C242.666 540.562 239.093 523.648 235.832 520.017C235.54 509.835 235.81 499.645 236.642 489.493C239.816 481.347 240.623 473.204 242.791 464.816C247.786 445.491 257.068 424.937 269.132 408.995Z"/><path fill="#9FE35B" transform="translate(-218 -216)" d="M470.486 238.703C571.361 223.285 672.528 264.671 733.674 346.369C731.497 345.758 728.28 342.215 726.737 340.457C702.051 312.324 669.693 289.301 635.195 274.839C631.805 273.418 624.824 271.01 621.264 270.559L620.516 270.097C617.702 270.158 615.818 269.794 613.088 269.294C613.605 270.242 616.237 271.337 617.567 272.112C612.792 271.787 605.114 268.523 598.667 267.712C591.913 273.021 582.014 274.86 575.029 280.076C568.743 284.769 564.305 290.447 559.476 296.472C547.668 311.203 538.101 327.571 525.629 341.747C524.349 343.202 522.428 345.319 521.487 346.928C502.355 337.506 484.261 329.921 463.203 325.62C456.103 324.17 447.735 323.167 440.495 322.035C438.425 321.983 432.011 321.683 430.408 322.217C407.157 347.837 389.598 367.312 377.953 400.941C376.01 406.549 372.208 417.011 370.975 422.521C367.817 428.553 367.298 443.405 365.223 445.878C364.613 443.463 366.943 435.711 365.877 433.171C362.193 430.868 354.838 430.408 350.549 428.529C333.767 421.176 316.067 415.094 299.047 408.045C294.742 406.262 290.58 404.325 286.223 402.664C281.89 407.887 279.624 413.827 277.367 416.393C277.911 414.143 278.904 412.741 280.065 410.739C276.886 410.445 271.864 410.249 269.132 408.995C257.068 424.937 247.786 445.491 242.791 464.816C240.623 473.204 239.816 481.347 236.642 489.493C245.111 386.142 310.686 296.214 406.499 256.554C427.033 248.054 448.517 242.06 470.486 238.703Z"/><defs><linearGradient id="gradient_4" gradientUnits="userSpaceOnUse" x1="368.26459" y1="304.34125" x2="329.58423" y2="427.13864"><stop offset="0" stop-color="#054315"/><stop offset="1" stop-color="#398D29"/></linearGradient></defs><path fill="url(#gradient_4)" transform="translate(-218 -216)" d="M337.595 343.888C353.62 336.877 368.196 330.766 385.361 327.018C400.26 323.764 415.285 323.209 430.408 322.217C407.157 347.837 389.598 367.312 377.953 400.941C376.01 406.549 372.208 417.011 370.975 422.521C367.817 428.553 367.298 443.405 365.223 445.878C364.613 443.463 366.943 435.711 365.877 433.171C362.193 430.868 354.838 430.408 350.549 428.529C333.767 421.176 316.067 415.094 299.047 408.045C294.742 406.262 290.58 404.325 286.223 402.664C281.89 407.887 279.624 413.827 277.367 416.393C277.911 414.143 278.904 412.741 280.065 410.739C276.886 410.445 271.864 410.249 269.132 408.995C286.057 380 309.665 361.3 337.595 343.888Z"/><defs><linearGradient id="gradient_5" gradientUnits="userSpaceOnUse" x1="545.16718" y1="323.90457" x2="499.13287" y2="271.16721"><stop offset="0" stop-color="#45AF72"/><stop offset="1" stop-color="#65D79F"/></linearGradient></defs><path fill="url(#gradient_5)" transform="translate(-218 -216)" d="M512.152 274.866C535.182 265.85 560.538 264.758 584.91 265.606C589.278 266.224 594.403 266.821 598.667 267.712C591.913 273.021 582.014 274.86 575.029 280.076C568.743 284.769 564.305 290.447 559.476 296.472C547.668 311.203 538.101 327.571 525.629 341.747C524.349 343.202 522.428 345.319 521.487 346.928C502.355 337.506 484.261 329.921 463.203 325.62C456.103 324.17 447.735 323.167 440.495 322.035C463.177 301.027 482.75 286.009 512.152 274.866Z"/><path fill="#63C452" transform="translate(-218 -216)" d="M470.486 238.703C571.361 223.285 672.528 264.671 733.674 346.369C731.497 345.758 728.28 342.215 726.737 340.457C702.051 312.324 669.693 289.301 635.195 274.839C631.805 273.418 624.824 271.01 621.264 270.559L620.516 270.097C617.702 270.158 615.818 269.794 613.088 269.294C613.605 270.242 616.237 271.337 617.567 272.112C612.792 271.787 605.114 268.523 598.667 267.712C594.403 266.821 589.278 266.224 584.91 265.606C560.538 264.758 535.182 265.85 512.152 274.866C482.75 286.009 463.177 301.027 440.495 322.035C438.425 321.983 432.011 321.683 430.408 322.217C415.285 323.209 400.26 323.764 385.361 327.018C368.196 330.766 353.62 336.877 337.595 343.888C345.013 329.884 387.421 320.66 403.29 318.98C408.037 318.478 424.321 318.659 427.301 317.16C433.952 313.814 445.959 303.502 452.191 298.355C456.872 295.959 464.053 291.369 468.984 288.559C474.163 285.857 478.98 283.356 484.25 280.867C489.798 278.248 499.082 275.046 503.617 271.355C506.177 270.233 507.146 269.432 509.172 267.555C509.577 265.554 509.928 264.018 509.994 261.949C510.598 242.923 476.195 244.207 470.486 238.703Z"/><path fill="#3EAC2B" transform="translate(-218 -216)" d="M509.157 267.926C536.641 259.724 557.122 258.803 585.386 261.641C584.912 263.539 584.93 263.628 584.91 265.606C560.538 264.758 535.182 265.85 512.152 274.866L509.157 267.926Z"/><path fill="#23891C" transform="translate(-218 -216)" d="M585.386 261.641C594.949 263.479 612.204 266.45 620.516 270.097C617.702 270.158 615.818 269.794 613.088 269.294C613.605 270.242 616.237 271.337 617.567 272.112C612.792 271.787 605.114 268.523 598.667 267.712C594.403 266.821 589.278 266.224 584.91 265.606C584.93 263.628 584.912 263.539 585.386 261.641Z"/><path fill="#BAECA7" transform="translate(-218 -216)" d="M406.499 256.554C427.033 248.054 448.517 242.06 470.486 238.703C476.195 244.207 510.598 242.923 509.994 261.949C509.928 264.018 509.577 265.554 509.172 267.555C507.146 269.432 506.177 270.233 503.617 271.355C496.724 271.385 486.59 272.93 479.001 273.338C458.094 274.464 422.611 269.22 406.499 256.554Z"/><path fill="#BAECA7" transform="translate(-218 -216)" d="M452.191 298.355C453.76 294.647 464.849 288.511 468.984 288.559C464.053 291.369 456.872 295.959 452.191 298.355Z"/><path fill="#0A5724" transform="translate(-218 -216)" d="M598.667 267.712C605.114 268.523 612.792 271.787 617.567 272.112C616.237 271.337 613.605 270.242 613.088 269.294C615.818 269.794 617.702 270.158 620.516 270.097L621.264 270.559C624.824 271.01 631.805 273.418 635.195 274.839C669.693 289.301 702.051 312.324 726.737 340.457C728.28 342.215 731.497 345.758 733.674 346.369C767.816 391.985 787.034 447.034 788.701 503.988C786.028 502.171 782.936 490.016 781.952 486.417C778.741 486.222 779.736 486.672 777.526 487.573C775.148 488.543 772.733 484.333 769.973 483.016C767.916 482.982 768.892 482.735 767.035 484.079C766.081 483.219 758.819 459.413 755.593 455.186C754.108 453.241 745.922 438.379 745.608 436.729C748.582 437.851 751.802 439.16 754.848 439.983C749.824 429.817 727.659 413.414 727.096 409.718C720.724 403.956 708.544 396.047 700.433 392.652C695.849 389.506 689.722 387.129 684.547 385.119C663.085 376.781 642.069 374.228 619.184 373.982C609.516 373.954 599.855 374.538 590.26 375.729C583.962 376.469 573.029 378.18 567.266 378.079C565.518 376.389 563.488 374.815 561.595 373.271C546.607 361.692 537.905 356.208 521.487 346.928C522.428 345.319 524.349 343.202 525.629 341.747C538.101 327.571 547.668 311.203 559.476 296.472C564.305 290.447 568.743 284.769 575.029 280.076C582.014 274.86 591.913 273.021 598.667 267.712Z"/><defs><linearGradient id="gradient_6" gradientUnits="userSpaceOnUse" x1="615.92096" y1="350.76028" x2="562.75385" y2="291.38382"><stop offset="0" stop-color="#04701B"/><stop offset="1" stop-color="#2D9F57"/></linearGradient></defs><path fill="url(#gradient_6)" transform="translate(-218 -216)" d="M598.667 267.712C605.114 268.523 612.792 271.787 617.567 272.112L618.121 272.289C637.165 281.89 650.167 289.695 665.388 305.043C666.595 306.217 668.941 308.106 669.182 309.582C667.77 310.34 668.506 310.052 666.72 310.032C661.471 310.78 653.116 311.19 648.445 312.192C623.399 317.563 593.832 330.235 578.223 351.38C573.438 357.862 566.789 367.477 561.595 373.271C546.607 361.692 537.905 356.208 521.487 346.928C522.428 345.319 524.349 343.202 525.629 341.747C538.101 327.571 547.668 311.203 559.476 296.472C564.305 290.447 568.743 284.769 575.029 280.076C582.014 274.86 591.913 273.021 598.667 267.712Z"/><path fill="#23891C" transform="translate(-218 -216)" d="M665.388 305.043C666.595 306.217 668.941 308.106 669.182 309.582C667.77 310.34 668.506 310.052 666.72 310.032L663.354 309.736L662.981 309.161C663.73 307.688 664.524 306.442 665.388 305.043Z"/><path fill="#63C452" transform="translate(-218 -216)" d="M745.608 436.729C748.582 437.851 751.802 439.16 754.848 439.983C756.372 441.735 759.632 446.094 761.725 446.358C772.839 460.479 776.078 469.639 781.952 486.417C778.741 486.222 779.736 486.672 777.526 487.573C775.148 488.543 772.733 484.333 769.973 483.016C767.916 482.982 768.892 482.735 767.035 484.079C766.081 483.219 758.819 459.413 755.593 455.186C754.108 453.241 745.922 438.379 745.608 436.729Z"/><path fill="#F2FBEF" transform="translate(-218 -216)" d="M727.096 409.718C738.69 418.17 754.463 434.188 761.725 446.358C759.632 446.094 756.372 441.735 754.848 439.983C749.824 429.817 727.659 413.414 727.096 409.718Z"/><path fill="#BAECA7" transform="translate(-218 -216)" d="M619.184 373.982C642.069 374.228 663.085 376.781 684.547 385.119C689.722 387.129 695.849 389.506 700.433 392.652C702.272 395.784 712.835 402.093 716.467 405.377C727.306 415.175 735.253 424.704 744.265 436.093C729.24 432.451 706.195 423.492 691.364 417.918C671.607 410.494 648.726 402.758 630.656 392.148C626.053 389.445 619.938 383.023 616.9 378.603L619.184 373.982Z"/><path fill="#3EAC2B" transform="translate(-218 -216)" d="M767.035 484.079C768.892 482.735 767.916 482.982 769.973 483.016C772.733 484.333 775.148 488.543 777.526 487.573C779.736 486.672 778.741 486.222 781.952 486.417C782.936 490.016 786.028 502.171 788.701 503.988C789.014 514.692 788.706 525.405 787.777 536.073C784.458 543.918 783.776 551.832 781.582 560.045C776.876 577.419 769.707 594.029 760.295 609.372C756.408 604.927 757.791 604.231 751.628 600.945C765.146 570.637 773.231 546.612 771.43 512.723C770.869 502.173 770.884 494.531 767.035 484.079Z"/><path fill="#9FE35B" transform="translate(-218 -216)" d="M567.266 378.079C573.029 378.18 583.962 376.469 590.26 375.729C599.855 374.538 609.516 373.954 619.184 373.982L616.9 378.603C619.938 383.023 626.053 389.445 630.656 392.148C648.726 402.758 671.607 410.494 691.364 417.918C706.195 423.492 729.24 432.451 744.265 436.093C735.253 424.704 727.306 415.175 716.467 405.377C712.835 402.093 702.272 395.784 700.433 392.652C708.544 396.047 720.724 403.956 727.096 409.718C727.659 413.414 749.824 429.817 754.848 439.983C751.802 439.16 748.582 437.851 745.608 436.729C740.265 438.609 671.23 411.019 661.283 407.304C655.812 405.26 655.984 404.754 648.79 404.66L648.317 403.94L648.779 402.702C648.047 402.377 648.202 402.517 647.256 402.611C646.375 403.548 646.304 403.665 645.247 404.372L644.009 403.909C642.996 402.515 642.456 401.436 640.91 400.735L640.856 402.416C640.017 403.816 640.619 403.285 638.773 403.787C636.014 402.881 639.328 403.216 636.897 401.625C632.415 404.587 630.71 401.703 625.154 402.297L625.374 402.966C634.519 403.499 639.197 405.625 647.799 407.399C650.145 407.883 653.562 406.718 657.18 407.015L657.383 407.462C653.717 410.601 639.521 407.281 635.278 405.485C632.93 404.491 623.569 404.863 621.145 403.715C614.272 400.46 557.116 389.563 558.532 381.947C560.313 382.385 559.901 382.468 561.388 384.156C562.74 384.352 562.069 384.401 563.389 383.692C563.94 382.127 563.967 382.888 563.239 381.338C560.298 379.533 553.093 381.964 548.328 382.564L547.63 381.827C549.326 381.015 564.136 378.777 567.266 378.079Z"/><path fill="#23891C" transform="translate(-218 -216)" d="M362.538 483.29C362.267 473.341 362.686 466.147 364.374 456.464C364.774 457.831 364.346 459.552 364.14 461.077C369.835 467.619 385.01 469.462 393.024 472.914C394.682 473.628 412.802 463.865 415.709 462.354L416.631 462.822C405.961 470.977 375.688 481.167 362.538 483.29Z"/><path fill="#61DC95" transform="translate(-218 -216)" d="M787.777 536.073C778.829 638.816 713.453 728.045 618.184 767.543C597.123 776.275 575.063 782.369 552.506 785.686C550.253 784.047 546.829 783.562 544.029 782.73C535.083 780.072 521.478 777.57 515.393 769.935C512.158 765.876 512.531 762.085 513.238 757.548L513.917 756.763C512.74 754.111 512.428 753.084 511.659 750.3C542.741 738.039 562.809 722.964 586.887 699.959C590.293 700.084 592.82 699.956 596.23 699.757C600.054 694.109 611.145 682.855 616.565 675.984C636.284 650.985 644.502 628.999 654.275 599.354C656.123 592.902 657.467 587.691 658.49 581.068C670.014 583.357 747.334 610.759 751.923 617.327C752.443 618.071 752.216 620.297 752.246 621.251C755.037 618.155 758.029 613.031 760.295 609.372C769.707 594.029 776.876 577.419 781.582 560.045C783.776 551.832 784.458 543.918 787.777 536.073Z"/><defs><linearGradient id="gradient_7" gradientUnits="userSpaceOnUse" x1="643.73627" y1="721.75183" x2="705.97406" y2="595.2724"><stop offset="0" stop-color="#014110"/><stop offset="1" stop-color="#298842"/></linearGradient></defs><path fill="url(#gradient_7)" transform="translate(-218 -216)" d="M658.49 581.068C670.014 583.357 747.334 610.759 751.923 617.327C752.443 618.071 752.216 620.297 752.246 621.251C735.109 645.269 704.194 673.242 676.654 684.29C669.073 686.967 658.652 691.165 651.371 693.391C637.842 697.526 609.62 702.387 596.23 699.757C600.054 694.109 611.145 682.855 616.565 675.984C636.284 650.985 644.502 628.999 654.275 599.354C656.123 592.902 657.467 587.691 658.49 581.068Z"/><defs><linearGradient id="gradient_8" gradientUnits="userSpaceOnUse" x1="606.8056" y1="734.50995" x2="539.73987" y2="756.03619"><stop offset="0" stop-color="#83ECAD"/><stop offset="1" stop-color="#C3FACD"/></linearGradient></defs><path fill="url(#gradient_8)" transform="translate(-218 -216)" d="M596.23 699.757C609.62 702.387 637.842 697.526 651.371 693.391C658.652 691.165 669.073 686.967 676.654 684.29C668.886 693.873 626.558 704.24 613.122 704.543C611.176 704.587 599.35 705.808 598.009 706.111C604.364 723.498 612.928 746.272 613.12 764.731L614.951 765.862C616.06 766.328 617.504 766.731 618.184 767.543C597.123 776.275 575.063 782.369 552.506 785.686C550.253 784.047 546.829 783.562 544.029 782.73C535.083 780.072 521.478 777.57 515.393 769.935C512.158 765.876 512.531 762.085 513.238 757.548L513.917 756.763C512.74 754.111 512.428 753.084 511.659 750.3C542.741 738.039 562.809 722.964 586.887 699.959C590.293 700.084 592.82 699.956 596.23 699.757Z"/><path fill="#BAECA7" transform="translate(-218 -216)" d="M518.874 753.251C523.513 751.036 530.794 748.499 535.815 746.602C536.598 748.569 537.525 751.121 538.39 752.996C541.454 753.122 553.62 753.419 555.983 753.842C560.606 750.971 579.12 754.95 584.781 756.28C594.383 758.544 603.846 761.366 613.12 764.731L614.951 765.862C616.06 766.328 617.504 766.731 618.184 767.543C597.123 776.275 575.063 782.369 552.506 785.686C550.253 784.047 546.829 783.562 544.029 782.73C535.083 780.072 521.478 777.57 515.393 769.935C512.158 765.876 512.531 762.085 513.238 757.548L513.917 756.763C515.97 754.885 516.39 754.442 518.874 753.251Z"/><path fill="#F2FBEF" transform="translate(-218 -216)" d="M555.983 753.842C560.606 750.971 579.12 754.95 584.781 756.28C594.383 758.544 603.846 761.366 613.12 764.731L614.951 765.862C612.003 766.266 599.562 761.917 595.859 760.869C582.869 757.055 569.495 754.698 555.983 753.842Z"/><path fill="#F2FBEF" transform="translate(-218 -216)" d="M518.874 753.251C523.513 751.036 530.794 748.499 535.815 746.602C536.598 748.569 537.525 751.121 538.39 752.996C533.69 752.937 521.461 755.215 518.874 753.251Z"/><path fill="#63C452" transform="translate(-218 -216)" d="M596.23 699.757C609.62 702.387 637.842 697.526 651.371 693.391C658.652 691.165 669.073 686.967 676.654 684.29C668.886 693.873 626.558 704.24 613.122 704.543C611.176 704.587 599.35 705.808 598.009 706.111C589.541 710.821 582.591 718.512 574.84 724.261C562.441 733.458 549.61 739.82 535.815 746.602C530.794 748.499 523.513 751.036 518.874 753.251C516.39 754.442 515.97 754.885 513.917 756.763C512.74 754.111 512.428 753.084 511.659 750.3C542.741 738.039 562.809 722.964 586.887 699.959C590.293 700.084 592.82 699.956 596.23 699.757Z"/><defs><linearGradient id="gradient_9" gradientUnits="userSpaceOnUse" x1="625.5752" y1="549.71313" x2="590.66016" y2="629.06989"><stop offset="0" stop-color="#3FA328"/><stop offset="1" stop-color="#76C34B"/></linearGradient></defs><path fill="url(#gradient_9)" transform="translate(-218 -216)" d="M628.913 549.982C638.517 545.579 651.666 542.383 661.846 539.786C661.941 550.036 661.267 560.28 659.829 570.43C659.403 573.227 658.593 578.337 658.49 581.068C657.467 587.691 656.123 592.902 654.275 599.354C633.28 600.298 619.38 602.551 599.154 608.787C588.04 612.214 575.93 616.63 564.867 619.618C562.563 613.954 560.945 602.738 560.409 596.743C560.116 593.463 560.101 590.301 559.314 587.06C560.815 585.903 572.036 579.773 574.705 578.227C592.409 567.971 609.931 557.741 628.913 549.982Z"/><path fill="#23891C" transform="translate(-218 -216)" d="M628.913 549.982C638.517 545.579 651.666 542.383 661.846 539.786C661.941 550.036 661.267 560.28 659.829 570.43C653.741 565.582 647.351 561.124 640.7 557.083C637.034 554.84 632.134 552.475 628.913 549.982Z"/><path fill="#61DC95" transform="translate(-218 -216)" d="M309.715 700.366C313.145 701.415 319.992 707.753 323.093 710.451C329.905 716.377 336.408 721.662 343.972 726.699C361.433 738.397 380.309 747.828 400.147 754.765L401.601 750.988C406.576 752.742 418.931 757.19 423.756 757.493C430.506 758.961 436.537 759.851 443.48 760.03C467.924 760.184 488.448 759.653 511.659 750.3C512.428 753.084 512.74 754.111 513.917 756.763L513.238 757.548C512.531 762.085 512.158 765.876 515.393 769.935C521.478 777.57 535.083 780.072 544.029 782.73C546.829 783.562 550.253 784.047 552.506 785.686C462.467 798.928 371.677 767.023 309.715 700.366Z"/><path fill="#3EAC2B" transform="translate(-218 -216)" d="M511.659 750.3C512.428 753.084 512.74 754.111 513.917 756.763L513.238 757.548C495.258 764.285 462.339 767.485 443.606 764.749L443.48 760.03C467.924 760.184 488.448 759.653 511.659 750.3Z"/><path fill="#23891C" transform="translate(-218 -216)" d="M401.601 750.988C406.576 752.742 418.931 757.19 423.756 757.493C430.506 758.961 436.537 759.851 443.48 760.03L443.606 764.749C425.828 761.97 417.489 760.756 400.147 754.765L401.601 750.988Z"/></g></svg>